<svg width="13" height="12" viewBox="0 0 13 12" fill="white" xmlns="http://www.w3.org/2000/svg">
  <path d="M6.414 2.906a3.08 3.08 0 0 0-3.08 3.08 3.064 3.064 0 0 0 3.08 3.081 3.08 3.08 0 0 0 3.08-3.08 3.098 3.098 0 0 0-3.08-3.08Zm0 5.09a2.006 2.006 0 0 1-2.01-2.01c0-1.098.885-1.982 2.01-1.982 1.098 0 1.982.884 1.982 1.983 0 1.125-.884 2.009-1.982 2.009Zm3.91-5.197a.72.72 0 0 0-.723-.723.72.72 0 0 0-.723.723.72.72 0 0 0 .723.723.72.72 0 0 0 .723-.723Zm2.036.723c-.053-.964-.268-1.821-.964-2.518C10.699.308 9.842.094 8.878.04c-.991-.053-3.964-.053-4.955 0-.965.054-1.795.268-2.518.964-.697.697-.91 1.554-.964 2.518-.054.991-.054 3.965 0 4.956.053.964.267 1.794.964 2.518.723.696 1.553.91 2.518.964.99.053 3.964.053 4.955 0 .964-.054 1.822-.268 2.518-.965.696-.723.91-1.553.964-2.517.054-.991.054-3.965 0-4.956Zm-1.285 6c-.188.536-.617.938-1.125 1.152-.804.322-2.68.241-3.536.241-.884 0-2.76.08-3.536-.24a2.031 2.031 0 0 1-1.152-1.153c-.321-.776-.24-2.651-.24-3.535 0-.858-.081-2.733.24-3.536a2.07 2.07 0 0 1 1.152-1.125c.777-.322 2.652-.241 3.536-.241.857 0 2.732-.08 3.536.24.508.188.91.617 1.125 1.126.32.803.24 2.678.24 3.536 0 .884.08 2.759-.24 3.535Z" fill="#fff"/>
</svg>